# File created by Blade
# Date/Time:  Tue Jan 27 19:54:25 2015
# Frame Rate: 120.000 fps
#------------------------------------------------------
:FULLY-SPECIFIED
:DEGREES
1835
root 7.598667 32.637097 -1.112772 -0.922333 -22.203985 -11.674739
Spine 7.686201 12.311936 11.420882
Head 7.876754 -0.688369 -1.979121
LeftShoulder -16.916489 0.600163 26.583291
LeftArm -2.788503 -18.456192 -80.385285
LeftForeArm -36.736954 -0.000000 133.818814
LeftHand 2.241407 -0.000000 -18.880049
LeftHandThumb1 -26.253704 0.000000 33.147579
RightShoulder -17.368996 -16.669858 -23.434348
RightArm 8.045596 -24.447032 86.586101
RightForeArm -17.348492 0.000000 22.876956
RightHand 17.144618 -0.000000 7.680506
RightHandThumb1 -24.326973 -0.000000 -32.862282
LeftUpLeg 7.946926 15.321400 0.546925
LeftLeg -0.491297 -0.000000 0.000000
LeftFoot -20.242202 22.129351 -16.120811
LeftToeBase 20.738030 -0.000000 -0.000000
RightUpLeg -92.523916 -18.274228 9.140547
RightLeg 113.808035 -0.000000 -0.000000
RightFoot 14.388904 -35.463187 22.277875
RightToeBase 8.877778 -0.000000 -0.000000
1836
root 7.606175 32.636730 -1.124711 -0.832106 -22.159592 -11.671599
Spine 7.595091 12.247281 11.351101
Head 7.877420 -0.681113 -1.903673
LeftShoulder -16.902447 0.626518 26.595913
LeftArm -2.763267 -18.432433 -80.363215
LeftForeArm -36.783143 -0.000000 133.874998
LeftHand 2.246347 -0.000000 -18.856121
LeftHandThumb1 -26.253704 0.000000 33.147579
RightShoulder -17.357034 -16.660121 -23.432895
RightArm 8.041824 -24.460325 86.605120
RightForeArm -17.373200 -0.000000 22.899984
RightHand 17.117882 0.000000 7.695900
RightHandThumb1 -24.326973 -0.000000 -32.862282
LeftUpLeg 7.815055 15.314742 0.513762
LeftLeg -0.489862 -0.000000 0.000000
LeftFoot -20.240059 22.098794 -16.150687
LeftToeBase 20.821478 -0.000000 -0.000000
RightUpLeg -92.421117 -18.301014 9.101485
RightLeg 113.669580 -0.000000 -0.000000
RightFoot 14.355456 -35.457693 22.226171
RightToeBase 8.806740 -0.000000 -0.000000
1837
root 7.603730 32.639774 -1.135822 -0.763841 -22.209874 -11.699286
Spine 7.551350 12.290981 11.293865
Head 7.885272 -0.669512 -1.790170
LeftShoulder -16.853315 0.614295 26.619712
LeftArm -2.782477 -18.460674 -80.314509
LeftForeArm -36.842911 -0.000000 133.947366
LeftHand 2.250541 -0.000000 -18.917521
LeftHandThumb1 -26.253704 0.000000 33.147579
RightShoulder -17.370731 -16.660999 -23.378695
RightArm 8.047799 -24.465294 86.620524
RightForeArm -17.395641 0.000000 22.914978
RightHand 17.100476 -0.000000 7.719786
RightHandThumb1 -24.326973 -0.000000 -32.862282
LeftUpLeg 7.751797 15.428713 0.548236
LeftLeg -0.473678 -0.000000 0.000000
LeftFoot -20.230912 21.960269 -16.161432
LeftToeBase 20.795046 -0.000000 -0.000000
RightUpLeg -92.225610 -18.192559 9.038256
RightLeg 113.507078 -0.000000 -0.000000
RightFoot 14.187422 -35.485748 22.478508
RightToeBase 9.126539 -0.000000 -0.000000
1838
root 7.607262 32.640263 -1.145939 -0.680628 -22.201169 -11.694307
Spine 7.473481 12.279309 11.213626
Head 7.871438 -0.665901 -1.718150
LeftShoulder -16.831824 0.592505 26.640197
LeftArm -2.803099 -18.496686 -80.278084
LeftForeArm -36.890981 -0.000000 134.014159
LeftHand 2.225635 0.000000 -18.965778
LeftHandThumb1 -26.253704 0.000000 33.147579
RightShoulder -17.387769 -16.620727 -23.368571
RightArm 7.991374 -24.487647 86.667675
RightForeArm -17.412496 -0.000000 22.938535
RightHand 17.103756 -0.000000 7.731237
RightHandThumb1 -24.326973 -0.000000 -32.862282
LeftUpLeg 7.653121 15.513669 0.537866
LeftLeg -0.506301 -0.000000 0.000000
LeftFoot -20.263225 21.847577 -16.328837
LeftToeBase 21.006798 -0.000000 -0.000000
RightUpLeg -92.093745 -18.166647 8.994580
RightLeg 113.371546 -0.000000 -0.000000
RightFoot 14.225430 -35.517898 22.283999
RightToeBase 9.058840 -0.000000 -0.000000
1839
root 7.611661 32.641479 -1.158249 -0.570134 -22.205527 -11.699602
Spine 7.377836 12.291365 11.146636
Head 7.847865 -0.670906 -1.669210
LeftShoulder -16.829101 0.581067 26.650701
LeftArm -2.791827 -18.529465 -80.275906
LeftForeArm -36.940022 0.000000 134.057164
LeftHand 2.229093 0.000000 -19.037895
LeftHandThumb1 -26.253704 0.000000 33.147579
RightShoulder -17.400922 -16.579833 -23.360672
RightArm 7.914208 -24.457029 86.731051
RightForeArm -17.407964 -0.000000 22.969556
RightHand 17.110258 -0.000000 7.766750
RightHandThumb1 -24.326973 -0.000000 -32.862282
LeftUpLeg 7.517874 15.581398 0.519338
LeftLeg -0.494393 -0.000000 0.000000
LeftFoot -20.200324 21.758027 -16.279259
LeftToeBase 20.921988 -0.000000 -0.000000
RightUpLeg -91.947479 -18.113474 8.951665
RightLeg 113.223636 -0.000000 -0.000000
RightFoot 14.238047 -35.497313 22.123619
RightToeBase 8.794728 -0.000000 -0.000000
1840
root 7.614896 32.641666 -1.169823 -0.455343 -22.204708 -11.691149
Spine 7.267543 12.280742 11.072841
Head 7.830961 -0.637031 -1.675945
LeftShoulder -16.744655 0.542930 26.658785
LeftArm -2.924928 -18.701386 -80.205829
LeftForeArm -37.032481 0.000000 134.139048
LeftHand 2.244910 -0.000000 -19.091689
LeftHandThumb1 -26.253704 0.000000 33.147579
RightShoulder -17.412979 -16.569728 -23.385532
RightArm 7.873551 -24.446286 86.819856
RightForeArm -17.425528 -0.000000 22.982142
RightHand 17.118555 -0.000000 7.838660
RightHandThumb1 -24.326973 -0.000000 -32.862282
LeftUpLeg 7.373628 15.613691 0.481148
LeftLeg -0.485067 -0.000000 0.000000
LeftFoot -20.221152 21.702010 -16.310682
LeftToeBase 21.067797 -0.000000 -0.000000
RightUpLeg -91.827352 -18.067352 8.892850
RightLeg 113.101980 -0.000000 -0.000000
RightFoot 14.131218 -35.520919 22.199960
RightToeBase 9.133571 -0.000000 -0.000000
1841
root 7.614331 32.646001 -1.183477 -0.322047 -22.204000 -11.748096
Spine 7.167191 12.287621 11.056813
Head 7.819104 -0.598571 -1.643326
LeftShoulder -16.739805 0.575908 26.667950
LeftArm -2.896039 -18.771877 -80.260307
LeftForeArm -37.085963 -0.000000 134.159251
LeftHand 2.275483 0.000000 -19.187892
LeftHandThumb1 -26.253704 0.000000 33.147579
RightShoulder -17.428786 -16.552625 -23.378263
RightArm 7.816209 -24.428171 86.887937
RightForeArm -17.462184 0.000000 23.000822
RightHand 17.111291 -0.000000 7.859859
RightHandThumb1 -24.326973 -0.000000 -32.862282
LeftUpLeg 7.247131 15.630720 0.512552
LeftLeg -0.518206 -0.000000 0.000000
LeftFoot -20.200523 21.704672 -16.338992
LeftToeBase 21.010235 -0.000000 -0.000000
RightUpLeg -91.638943 -17.990682 8.834849
RightLeg 112.954173 -0.000000 -0.000000
RightFoot 14.170097 -35.462289 22.231909
RightToeBase 8.923417 -0.000000 -0.000000
